<?xml version="1.0" encoding="UTF-8" standalone="no"?>
<svg
   xmlns:dc="http://purl.org/dc/elements/1.1/"
   xmlns:cc="http://creativecommons.org/ns#"
   xmlns:rdf="http://www.w3.org/1999/02/22-rdf-syntax-ns#"
   xmlns:svg="http://www.w3.org/2000/svg"
   xmlns="http://www.w3.org/2000/svg"
   xmlns:sodipodi="http://sodipodi.sourceforge.net/DTD/sodipodi-0.dtd"
   xmlns:inkscape="http://www.inkscape.org/namespaces/inkscape"
   version="1.1"
   viewBox="0 0 490 490"
   enable-background="new 0 0 490 490"
   id="svg3711"
   sodipodi:docname="shelves.svg"
   inkscape:version="0.92.2 (5c3e80d, 2017-08-06)">
  <metadata
     id="metadata3717">
    <rdf:RDF>
      <cc:Work
         rdf:about="">
        <dc:format>image/svg+xml</dc:format>
        <dc:type
           rdf:resource="http://purl.org/dc/dcmitype/StillImage" />
      </cc:Work>
    </rdf:RDF>
  </metadata>
  <defs
     id="defs3715" />
  <sodipodi:namedview
     pagecolor="#ffffff"
     bordercolor="#666666"
     borderopacity="1"
     objecttolerance="10"
     gridtolerance="10"
     guidetolerance="10"
     inkscape:pageopacity="0"
     inkscape:pageshadow="2"
     inkscape:window-width="1031"
     inkscape:window-height="895"
     id="namedview3713"
     showgrid="false"
     inkscape:zoom="0.48163265"
     inkscape:cx="245"
     inkscape:cy="245"
     inkscape:window-x="0"
     inkscape:window-y="0"
     inkscape:window-maximized="0"
     inkscape:current-layer="svg3711" />
  <path
     d="M425.003,475c0,8.284-6.716,15-15,15h-30.004c-8.284,0-15-6.716-15-15s6.716-15,15-15h30.004  C418.287,460,425.003,466.716,425.003,475z M110,460H80c-8.284,0-15,6.716-15,15s6.716,15,15,15H110c8.284,0,15-6.716,15-15  S118.285,460,110,460z M490,15v419.998c0,8.284-6.716,15-15,15H15c-8.284,0-15-6.716-15-15V15C0,6.716,6.716,0,15,0h460  C483.284,0,490,6.716,490,15z M229.999,239.999H30v179.999h199.999V239.999z M229.999,30H30v179.999h199.999V30z M460,239.999  H259.999v179.999H460V239.999z M400.184,209.999l-45.109-45.109c-0.024-0.024-0.05-0.05-0.074-0.074v45.184H400.184z M460,30  H259.999v179.999h20.002v-85.009c0-8.284,6.716-15,15-15s15,6.716,15,15v85.009H325v-85.009c0-8.284,6.716-15,15-15s15,6.716,15,15  v18.761c0.024-0.024,0.05-0.05,0.074-0.074c5.857-5.858,15.355-5.858,21.213,0l66.322,66.322H460V30z"
     id="path3709" />
  <path
     id="path3709-7"
     d="m 17.075313,-417.3305 c -8.2839999,0 -14.9999999,6.716 -14.9999999,15 V 17.667542 c 0,8.284 6.716,15 14.9999999,15 H 477.07531 c 8.284,0 15,-6.716 15,-15 V -402.3305 c 0,-8.284 -6.716,-15 -15,-15 z m 15,30 H 232.07531 v 179.99805 H 32.075313 Z m 229.999997,0 h 200 v 179.99805 h -17.39062 l -66.32227,-66.32032 c -5.858,-5.858 -15.35589,-5.858 -21.21289,0 l -0.0742,0.0742 v -18.76172 c 0,-8.284 -6.716,-15 -15,-15 -8.284,0 -15,6.716 -15,15 v 85.00782 h -14.99805 v -85.00782 c 0,-8.284 -6.716,-15 -15,-15 -8.284,0 -15,6.716 -15,15 v 85.00782 h -20.00195 z m 95.00195,134.81641 0.0742,0.0742 45.10938,45.10743 v 0.002 h -45.1836 z M 32.075313,-177.33245 H 232.07531 V 2.6675415 H 32.075313 Z m 229.999997,0 h 200 V 2.6675415 h -200 z"
     inkscape:connector-curvature="0" />
</svg>
